<?xml version="1.0" encoding="UTF-8"?>
<svg xmlns="http://www.w3.org/2000/svg" xmlns:xlink="http://www.w3.org/1999/xlink" viewBox="0 0 48 48" width="48px" height="48px">
<g id="surface49011881">
<path style="fill-rule:nonzero;fill:rgb(0%,0%,0%);fill-opacity:1;stroke-width:10;stroke-linecap:butt;stroke-linejoin:round;stroke:rgb(100%,100%,100%);stroke-opacity:1;stroke-miterlimit:10;" d="M 117.377202 20.349228 L 184.283116 73.067632 C 192.787942 79.767823 197.741091 90.000492 197.741091 100.809109 L 197.741091 190.695332 C 197.741091 197.107549 192.403977 202.463862 185.972562 202.463862 L 138.898444 202.463862 C 132.467029 202.463862 127.129914 197.107549 127.129914 190.695332 L 127.129914 143.602016 C 127.129914 142.219742 126.150803 141.240631 124.768529 141.240631 L 101.23147 141.240631 C 99.849196 141.240631 98.870085 142.219742 98.870085 143.602016 L 98.870085 190.695332 C 98.870085 197.107549 93.53297 202.463862 87.101556 202.463862 L 40.027438 202.463862 C 33.596023 202.463862 28.258908 197.107549 28.258908 190.695332 L 28.258908 100.809109 C 28.258908 90.000492 33.212058 79.767823 41.716884 73.067632 L 108.622798 20.349228 C 109.81309 19.408513 111.272157 18.89016 112.769621 18.832566 C 114.439869 18.774971 116.052522 19.312522 117.377202 20.349228 Z M 50.452089 84.164223 C 45.345354 88.195856 42.369624 94.320099 42.369624 100.809109 L 42.369624 188.333947 L 84.759369 188.333947 L 84.759369 143.602016 C 84.759369 134.578837 92.208291 127.129914 101.23147 127.129914 L 124.768529 127.129914 C 133.791708 127.129914 141.240631 134.578837 141.240631 143.602016 L 141.240631 188.333947 L 183.630375 188.333947 L 183.630375 100.809109 C 183.630375 94.320099 180.654646 88.195856 175.54791 84.164223 L 113 34.882306 Z M 50.452089 84.164223 " transform="matrix(0.203469,0,0,0.203469,1.008,1.008)"/>
<path style=" stroke:none;fill-rule:nonzero;fill:rgb(100%,100%,100%);fill-opacity:1;" d="M 23.953125 4.839844 C 23.648438 4.851562 23.351562 4.957031 23.109375 5.148438 L 9.496094 15.875 C 7.765625 17.238281 6.757812 19.320312 6.757812 21.519531 L 6.757812 39.808594 C 6.757812 41.113281 7.84375 42.203125 9.152344 42.203125 L 18.730469 42.203125 C 20.039062 42.203125 21.125 41.113281 21.125 39.808594 L 21.125 30.226562 C 21.125 29.945312 21.324219 29.746094 21.605469 29.746094 L 26.394531 29.746094 C 26.675781 29.746094 26.875 29.945312 26.875 30.226562 L 26.875 39.808594 C 26.875 41.113281 27.960938 42.203125 29.269531 42.203125 L 38.847656 42.203125 C 40.15625 42.203125 41.242188 41.113281 41.242188 39.808594 L 41.242188 21.519531 C 41.242188 19.320312 40.234375 17.238281 38.503906 15.875 L 24.890625 5.148438 C 24.621094 4.9375 24.292969 4.828125 23.953125 4.839844 Z M 24 8.105469 L 36.726562 18.132812 C 37.765625 18.953125 38.371094 20.199219 38.371094 21.519531 L 38.371094 39.328125 L 29.746094 39.328125 L 29.746094 30.226562 C 29.746094 28.390625 28.230469 26.875 26.394531 26.875 L 21.605469 26.875 C 19.769531 26.875 18.253906 28.390625 18.253906 30.226562 L 18.253906 39.328125 L 9.628906 39.328125 L 9.628906 21.519531 C 9.628906 20.199219 10.234375 18.953125 11.273438 18.132812 Z M 24 8.105469 "/>
</g>
</svg>
